<svg version="1.0"
    xmlns="http://www.w3.org/2000/svg"
    width="1536.000000pt"
    height="1536.000000pt"
    viewBox="0 0 1536.000000 1536.000000"
    preserveAspectRatio="xMidYMid meet">
    <metadata>Created by potrace 1.16, written by Peter Selinger 2001-2019</metadata>

    <g transform="translate(0.000000,1836.000000) scale(0.100000,-0.100000)" fill="rgb(249, 154, 66)" stroke="none">
        <path d="M0 10240 l0 -10240 7680 0 7680 0 0 10240 0 10240 -7680 0 -7680 0 0
        -10240z m8106 5150 c708 -42 1395 -220 1986 -516 59 -30 111 -54 116 -54 5 0
        71 108 146 240 76 132 142 240 147 240 6 0 63 -31 127 -68 64 -38 154 -90 199
        -116 77 -44 82 -49 71 -69 -6 -12 -147 -258 -313 -547 -166 -289 -307 -534
        -313 -546 -10 -19 -4 -26 66 -74 444 -308 811 -670 1116 -1100 97 -136 177
        -262 172 -267 -6 -6 -229 36 -236 44 -4 5 -40 55 -80 113 -183 259 -449 554
        -685 758 -156 134 -449 352 -460 341 -2 -2 -79 -135 -170 -294 -92 -160 -168
        -292 -170 -293 -4 -4 -261 -42 -286 -42 -11 0 -33 41 -73 139 l-58 140 172
        296 c94 163 170 298 168 300 -12 10 -184 92 -284 134 -333 140 -724 244 -1096
        291 -430 55 -891 42 -1318 -36 -917 -168 -1769 -646 -2392 -1341 -79 -88 -107
        -113 -127 -113 -14 -1 -72 -9 -128 -18 -57 -10 -103 -17 -103 -15 0 9 163 202
        266 314 506 551 1173 977 1899 1212 1061 344 2251 268 3251 -208 64 -30 120
        -55 125 -55 4 0 42 60 83 133 l76 132 -132 63 c-1659 792 -3635 548 -5064
        -624 -327 -268 -635 -601 -882 -955 l-81 -116 -113 -31 c-62 -18 -213 -65
        -335 -104 l-221 -71 -221 128 c-122 70 -221 131 -221 136 0 8 217 388 230 402
        4 4 116 -56 250 -133 133 -77 244 -139 246 -138 1 2 33 48 70 103 191 285 374
        506 639 771 395 395 783 681 1270 935 816 426 1766 631 2671 579z m3039 -1195
        c388 -323 730 -705 1009 -1128 115 -174 240 -391 228 -395 -8 -2 -351 81 -533
        129 -28 7 -44 21 -74 67 -76 115 -266 360 -378 487 -140 159 -355 369 -501
        490 -60 50 -120 99 -133 110 l-24 20 136 163 137 162 26 -19 c15 -11 63 -49
        107 -86z m-2955 -450 c229 -34 417 -93 549 -173 143 -87 292 -282 431 -567
        156 -319 269 -631 550 -1514 301 -945 451 -1357 690 -1886 144 -321 168 -400
        177 -600 l6 -130 -205 -167 c-113 -92 -266 -221 -341 -288 l-137 -120 -14 35
        c-192 459 -214 543 -416 1620 -171 913 -230 1142 -470 1845 -163 478 -189 586
        -215 907 -8 99 -22 198 -31 226 -34 101 -143 177 -277 193 -103 12 -179 -29
        -551 -295 -263 -187 -460 -318 -983 -649 -479 -303 -516 -330 -575 -416 -88
        -127 -189 -343 -348 -741 -296 -740 -419 -1128 -494 -1565 -33 -186 -43 -271
        -61 -510 -17 -231 -19 -238 -183 -630 -129 -310 -152 -375 -159 -451 -5 -56
        -5 -58 38 -103 51 -56 229 -149 229 -121 0 3 -10 25 -22 48 -21 41 -31 137
        -16 153 9 8 220 -112 298 -169 78 -59 205 -189 385 -397 169 -194 220 -244
        317 -304 l63 -38 -80 5 c-161 10 -271 72 -535 303 -85 74 -191 157 -235 184
        -112 67 -307 163 -535 263 -356 155 -347 148 -337 266 5 64 72 306 161 585
        l44 139 -30 81 c-118 321 -175 646 -138 786 36 134 177 429 500 1040 433 820
        525 1014 825 1735 89 215 186 442 214 505 166 368 345 616 517 718 182 108
        457 183 779 212 144 13 479 4 615 -15z m-2389 -1012 c-126 -318 -489 -1144
        -513 -1168 -2 -2 -283 -5 -625 -7 l-621 -3 -59 203 -59 203 -98 -211 -99 -210
        -93 0 c-51 0 -99 -2 -106 -5 -11 -4 -26 25 -58 107 -24 62 -47 117 -51 121 -3
        5 -45 -47 -93 -116 l-87 -124 -117 -7 c-610 -36 -1147 -76 -1565 -117 -115
        -11 -218 -19 -230 -17 -25 4 169 138 388 268 157 93 542 291 710 365 939 410
        2010 671 3055 744 85 6 171 13 190 15 19 1 61 4 92 4 l58 2 -19 -47z m6423
        -324 c270 -67 387 -99 408 -110 20 -11 51 -68 62 -112 5 -23 0 -33 -32 -65
        -20 -20 -49 -52 -62 -70 l-25 -34 -180 55 c-99 30 -244 71 -322 92 l-143 38 0
        47 c0 26 -3 74 -6 108 l-7 61 34 20 c19 12 43 21 53 21 10 0 109 -23 220 -51z
        m-2015 -9 c716 -124 1446 -287 2031 -455 184 -53 606 -190 630 -205 8 -5 -22
        -129 -99 -411 -60 -222 -162 -597 -226 -834 -64 -236 -118 -435 -120 -441 -2
        -8 -61 7 -172 41 -428 135 -912 282 -1186 361 l-98 28 -53 85 c-166 267 -362
        645 -906 1754 -32 64 -53 117 -47 117 6 0 117 -18 246 -40z m-1908 -117 c68
        -75 135 -166 164 -223 12 -25 44 -106 70 -180 121 -343 223 -503 499 -787 l99
        -103 -7 -82 c-9 -123 -41 -241 -92 -342 -24 -49 -43 -90 -42 -91 2 -1 56 -20
        122 -41 65 -22 121 -45 123 -52 3 -7 2 -31 -1 -55 -6 -36 -15 -49 -69 -93 -51
        -42 -74 -72 -133 -175 l-72 -124 -107 -23 c-60 -12 -110 -20 -113 -18 -3 4 42
        140 85 252 3 7 -26 13 -84 17 -209 14 -415 100 -564 234 l-38 34 -5 -43 c-4
        -24 -11 -83 -17 -132 l-10 -89 35 -52 c49 -75 92 -162 112 -230 14 -49 16 -82
        10 -190 -3 -71 -9 -145 -12 -163 -6 -32 -7 -32 -26 -15 -16 14 -23 15 -39 5
        -17 -11 -23 -9 -42 14 -22 26 -23 26 -61 10 -21 -9 -50 -29 -66 -46 l-29 -31
        -25 26 c-21 21 -30 24 -45 15 -11 -5 -23 -15 -27 -21 -4 -7 -21 5 -44 32 l-37
        43 -67 -37 -67 -37 -29 20 c-16 11 -45 27 -64 35 -39 17 -51 11 -87 -45 l-16
        -24 -28 22 -28 23 -27 -26 -26 -25 -30 31 c-34 36 -86 62 -109 53 -8 -4 -20
        -15 -26 -26 -8 -15 -14 -17 -22 -9 -16 16 -44 13 -51 -5 -13 -35 -24 2 -36
        125 -19 196 6 296 114 466 40 62 41 67 24 217 l-11 107 -47 -39 c-161 -135
        -353 -213 -558 -227 -98 -7 -95 8 -34 -160 23 -62 38 -113 34 -113 -4 0 -55
        10 -115 21 l-107 22 -65 117 c-61 110 -113 173 -182 220 -17 12 -23 27 -25 69
        l-3 54 120 40 c66 22 122 41 124 43 2 2 -17 45 -42 96 -50 104 -71 178 -89
        319 l-12 95 31 65 c17 35 70 120 119 189 101 144 133 213 141 311 l6 69 120
        76 c210 133 543 297 750 369 53 19 188 59 298 90 178 49 396 123 499 169 19 8
        40 15 46 16 7 0 36 -26 65 -57z m-5333 -1461 l124 -87 -6 -40 c-17 -128 -28
        -424 -22 -620 19 -715 177 -1356 490 -2000 325 -669 819 -1267 1410 -1708 138
        -103 261 -187 273 -187 14 1 156 261 147 269 -5 4 -61 45 -124 89 -878 622
        -1506 1543 -1759 2582 -97 401 -146 884 -125 1253 l9 158 84 -59 84 -59 3
        -249 c5 -581 111 -1108 325 -1622 318 -764 873 -1447 1545 -1899 l60 -41 105
        184 c57 101 106 183 109 184 3 0 22 -34 44 -76 45 -88 150 -248 208 -317 46
        -55 47 -47 -22 -165 l-31 -53 98 -45 c823 -385 1694 -500 2587 -344 65 12 120
        19 122 17 2 -2 -11 -46 -30 -98 l-34 -94 -73 -12 c-891 -151 -1829 -23 -2629
        358 -72 34 -132 60 -133 58 -2 -2 -73 -125 -158 -274 -86 -148 -231 -402 -324
        -562 l-168 -293 -56 32 c-179 102 -353 205 -355 209 0 3 61 112 136 243 76
        131 138 241 138 245 0 5 -39 34 -87 66 -49 32 -146 102 -218 155 -848 637
        -1475 1508 -1811 2516 -250 753 -326 1517 -229 2309 23 186 13 174 98 114 39
        -28 128 -90 195 -137z m10049 -774 c-10 -342 -39 -590 -108 -923 -82 -402
        -219 -808 -395 -1174 -41 -85 -73 -155 -72 -157 2 -1 108 -63 237 -138 129
        -75 238 -139 242 -143 4 -5 -44 -96 -106 -203 -63 -107 -116 -199 -118 -205
        -5 -12 36 -35 -524 290 -255 147 -463 271 -463 276 0 17 165 181 262 261 l101
        83 57 120 c217 457 367 975 425 1460 9 77 20 152 23 167 6 23 426 498 441 498
        2 0 1 -96 -2 -212z m-1502 -51 c96 -50 169 -107 298 -234 86 -85 97 -100 92
        -122 -42 -164 -44 -336 -10 -621 27 -224 31 -301 15 -331 -6 -10 -56 -49 -111
        -86 -55 -36 -135 -98 -176 -137 -77 -71 -361 -396 -528 -601 -49 -60 -139
        -171 -200 -245 -220 -269 -304 -386 -468 -651 -163 -266 -655 -1139 -641
        -1139 10 0 329 164 420 215 230 132 574 378 764 547 167 149 386 379 586 617
        l22 25 28 -34 c90 -106 244 -296 244 -301 0 -3 -34 -46 -76 -95 -508 -595
        -1137 -1064 -1848 -1379 -1062 -469 -2239 -570 -3361 -288 -168 42 -561 165
        -577 181 -5 6 66 332 88 404 4 15 11 14 72 -8 356 -134 736 -226 1142 -276
        149 -19 227 -22 530 -22 380 0 500 9 800 60 237 41 205 22 276 159 712 1388
        800 1531 1603 2620 303 411 462 637 500 713 43 84 93 229 172 496 77 260 142
        439 196 539 31 55 28 55 148 -6z m-4893 -519 c57 -87 69 -131 84 -299 7 -86
        20 -185 29 -220 31 -118 146 -413 220 -564 92 -188 140 -244 255 -303 45 -23
        90 -42 101 -42 36 0 11 -63 -32 -81 -16 -6 -29 -13 -29 -16 0 -8 63 -97 103
        -146 67 -81 71 -82 322 -82 252 0 263 3 322 73 45 54 113 147 113 155 0 2 -14
        10 -31 17 -26 11 -49 43 -49 68 0 4 20 14 45 21 73 22 166 84 215 144 78 96
        201 364 298 652 40 118 51 177 71 394 8 88 15 116 45 176 19 39 44 79 54 88
        18 17 19 13 25 -150 3 -93 13 -242 22 -332 13 -130 14 -169 4 -193 -6 -16 -54
        -68 -106 -116 l-93 -87 -95 -230 c-114 -276 -312 -678 -392 -794 -84 -122 -90
        -125 -234 -130 -98 -2 -123 0 -137 12 -9 9 -30 21 -46 27 -25 9 -37 7 -82 -16
        -50 -25 -58 -26 -170 -22 l-118 4 -44 49 c-95 105 -282 464 -437 840 -48 115
        -95 225 -105 245 -10 19 -50 61 -88 93 -38 32 -82 76 -98 98 l-28 41 17 211
        c10 117 20 269 24 340 3 70 7 127 9 127 1 0 17 -24 36 -52z m678 -38 c16 -17
        36 -51 46 -75 l17 -45 22 48 c30 64 46 69 84 26 l30 -34 15 29 c33 63 70 77
        104 41 20 -22 46 -178 36 -218 -8 -27 -39 -36 -101 -29 -31 3 -52 12 -62 26
        -16 21 -16 21 -29 1 -16 -26 -62 -26 -95 0 l-25 20 -12 -29 c-6 -16 -20 -37
        -31 -47 -18 -16 -20 -16 -43 5 -14 13 -30 37 -37 54 -16 39 -26 47 -61 47 -33
        0 -41 22 -36 95 3 55 25 78 56 58 16 -9 23 -6 46 23 15 19 32 34 37 34 6 0 24
        -14 39 -30z m829 11 c10 -10 23 -27 29 -37 9 -15 13 -17 23 -6 45 44 82 -23
        63 -117 -5 -26 -11 -31 -35 -31 -32 0 -38 -5 -80 -73 -36 -58 -56 -59 -85 -1
        l-21 42 -24 -19 c-30 -23 -67 -24 -90 -3 -17 15 -20 15 -45 -5 -19 -15 -41
        -21 -75 -21 -79 0 -88 20 -69 165 7 57 14 74 35 93 24 21 29 21 49 9 11 -8 30
        -30 42 -50 l20 -36 33 35 c31 32 35 34 51 19 9 -9 25 -34 35 -56 l19 -40 17
        47 c17 45 63 104 81 104 4 0 16 -8 27 -19z m-974 -501 c8 -16 15 -37 15 -47 0
        -10 10 -23 22 -28 41 -18 63 -177 32 -236 -15 -29 -14 -33 20 -102 20 -40 36
        -78 36 -85 0 -7 13 -12 30 -12 30 0 70 -32 70 -56 0 -8 15 -12 44 -11 32 1 53
        -4 75 -20 17 -14 32 -19 36 -13 3 6 28 10 56 10 36 0 54 -5 70 -21 l21 -21 22
        21 c17 16 35 21 74 21 28 0 53 -4 57 -10 3 -5 22 2 42 15 39 28 55 30 84 15
        15 -9 19 -7 19 5 0 24 46 65 72 65 19 0 30 15 61 79 42 90 43 91 21 133 -14
        27 -15 41 -4 107 15 101 18 109 39 116 10 3 23 23 30 44 6 21 18 45 27 52 14
        11 18 10 30 -6 8 -10 14 -28 14 -39 0 -12 14 -65 31 -119 29 -88 30 -99 17
        -115 -39 -43 -49 -79 -36 -126 10 -39 10 -51 -5 -81 -9 -20 -24 -38 -32 -41
        -9 -4 -15 -19 -15 -39 0 -43 -22 -65 -66 -65 -31 0 -34 -2 -34 -30 0 -23 -7
        -35 -32 -50 -18 -11 -39 -18 -46 -15 -50 19 -59 17 -65 -13 -5 -26 -43 -60
        -91 -81 -5 -2 -22 11 -37 30 -25 29 -28 31 -29 13 0 -11 -13 -41 -30 -67 -29
        -47 -30 -47 -54 -32 -25 17 -55 79 -57 118 0 12 -7 -1 -16 -30 -8 -29 -28 -63
        -44 -79 l-28 -27 -20 24 c-19 22 -30 46 -45 92 -5 16 -9 15 -32 -12 -14 -17
        -30 -31 -36 -31 -21 0 -86 61 -92 86 -7 26 -14 27 -56 10 -25 -10 -80 30 -87
        64 -5 26 -10 30 -39 30 -38 0 -64 29 -64 71 0 15 -7 33 -17 40 -32 27 -44 74
        -31 122 11 41 9 48 -15 90 -15 25 -27 52 -27 59 0 7 13 56 29 108 17 52 32
        107 36 123 7 35 31 35 50 -3z m4520 -1012 c-183 -318 -447 -658 -724 -933
        l-121 -120 0 125 0 125 112 120 c163 176 324 381 475 605 28 41 44 51 164 106
        74 34 136 60 138 58 2 -2 -18 -41 -44 -86z" />
        <path d="M7460 11546 c0 -36 9 -92 20 -128 11 -34 20 -85 20 -111 0 -41 -5
        -53 -30 -79 -28 -27 -36 -30 -76 -25 -52 5 -156 65 -294 169 -73 55 -90 65
        -85 46 9 -28 37 -78 82 -141 19 -27 32 -52 28 -55 -9 -10 -143 16 -231 45
        l-80 26 -65 -26 c-35 -14 -93 -31 -129 -37 -36 -7 -70 -14 -76 -15 -20 -5 -44
        -119 -44 -206 0 -90 32 -252 70 -351 45 -121 134 -213 203 -210 54 2 243 69
        341 120 54 29 109 67 140 98 91 92 165 240 174 350 l4 61 79 47 c43 26 84 56
        90 68 19 36 6 186 -20 238 -25 47 -111 180 -117 180 -2 0 -4 -29 -4 -64z" />
        <path d="M7858 11549 c-81 -113 -98 -159 -98 -271 l0 -96 83 -52 84 -51 11
        -77 c20 -124 104 -280 194 -357 81 -69 211 -130 385 -180 84 -25 84 -25 122
        -6 82 43 138 131 185 294 39 135 52 250 37 337 -18 113 -27 123 -110 138 -39
        6 -99 23 -134 37 l-64 26 -101 -30 c-55 -16 -128 -33 -162 -37 l-61 -7 49 74
        c28 41 57 91 66 112 l16 39 -48 -36 c-68 -52 -230 -160 -277 -185 -55 -29
        -109 -28 -140 3 -39 39 -41 69 -11 190 16 65 26 130 24 156 l-3 45 -47 -66z" />
        <path d="M7623 11062 c-27 -37 -62 -105 -79 -156 -13 -41 -13 -41 62 39 l75
        80 76 -79 c57 -59 74 -72 69 -53 -11 45 -43 111 -75 155 -27 37 -36 42 -69 42
        -30 0 -43 -6 -59 -28z"/>
        <path d="M7727 10527 l-47 -41 -38 37 c-21 20 -43 37 -48 37 -6 0 -30 -14 -52
        -30 -41 -30 -42 -31 -42 -90 0 -47 -7 -74 -30 -120 -46 -91 -60 -160 -60 -291
        l0 -117 48 -31 c58 -37 64 -37 154 -10 l69 20 85 -24 84 -25 53 37 52 37 3 89
        c4 124 -13 210 -59 306 -31 64 -39 92 -39 137 -1 55 -2 58 -43 88 l-42 31 -48
        -40z" />
        <path d="M10185 6924 c-117 -80 -293 -283 -402 -464 -53 -89 -277 -493 -382
        -691 l-61 -117 109 40 109 40 73 137 c180 338 390 704 531 924 48 76 88 142
        88 147 0 20 -18 16 -65 -16z" />
    </g>
</svg>
