<?xml version="1.0" standalone="no"?>
<!DOCTYPE svg PUBLIC "-//W3C//DTD SVG 20010904//EN"
 "http://www.w3.org/TR/2001/REC-SVG-20010904/DTD/svg10.dtd">
<svg version="1.0" xmlns="http://www.w3.org/2000/svg"
 width="600.000000pt" height="300.000000pt" viewBox="0 0 600.000000 300.000000"
 preserveAspectRatio="xMidYMid meet">
<metadata>
Created by potrace 1.16, written by Peter Selinger 2001-2019
</metadata>
<g transform="translate(0.000000,300.000000) scale(0.100000,-0.100000)"
fill="#000000" stroke="none">
<path d="M2831 2704 c-299 -50 -596 -230 -777 -472 -32 -42 -59 -79 -61 -81
-1 -2 -27 11 -57 28 -31 17 -58 31 -60 31 -9 0 -56 -86 -56 -102 0 -8 20 -26
44 -39 42 -22 47 -22 98 -10 100 25 122 39 167 101 56 76 179 194 260 250 321
217 727 260 1078 113 84 -35 93 -46 71 -76 -12 -15 -19 -13 -82 14 -126 54
-208 70 -376 76 -129 4 -171 2 -251 -15 -204 -42 -383 -139 -536 -288 -51 -51
-93 -97 -93 -104 0 -28 59 6 130 74 129 126 280 211 458 257 111 29 301 36
421 15 94 -16 281 -82 281 -99 0 -5 -16 -38 -36 -73 -33 -59 -35 -67 -24 -99
12 -38 21 -41 66 -25 20 7 40 29 63 70 19 33 39 60 45 60 27 0 177 -137 243
-222 36 -47 50 -58 74 -58 16 0 29 4 29 9 0 30 -174 219 -283 306 l-37 30 75
130 c41 72 75 132 75 135 0 3 -21 18 -47 33 -36 22 -48 26 -55 15 -5 -7 -20
-32 -34 -55 -14 -24 -29 -43 -34 -43 -4 0 -36 13 -71 29 -200 90 -477 124
-708 85z"/>
<path d="M3777 2422 c-15 -15 -27 -35 -27 -44 0 -9 40 -56 88 -105 48 -48 102
-109 120 -135 28 -41 39 -48 84 -58 29 -7 63 -10 76 -9 21 4 20 7 -25 76 -27
40 -73 102 -103 138 -55 67 -161 165 -177 165 -5 0 -21 -13 -36 -28z"/>
<path d="M2913 2319 c-69 -13 -126 -43 -165 -87 -46 -51 -60 -78 -154 -299
-41 -97 -116 -255 -167 -352 -151 -286 -151 -286 -116 -411 l20 -75 -21 -76
c-29 -100 -25 -128 20 -144 19 -7 47 -16 61 -19 25 -5 56 -27 149 -102 42 -34
107 -64 139 -64 7 0 -9 24 -38 53 -28 29 -58 63 -67 76 -16 22 -100 81 -116
81 -4 0 -8 -7 -8 -15 0 -21 -24 -19 -44 4 -17 18 -16 24 24 122 31 78 44 126
51 194 12 121 42 235 99 385 74 195 107 258 149 287 20 13 128 85 241 159 167
110 209 134 230 129 46 -11 61 -37 71 -121 6 -43 33 -146 60 -229 34 -103 67
-235 105 -423 50 -255 84 -372 106 -372 5 0 45 30 89 67 l81 68 -6 47 c-4 26
-29 100 -58 165 -28 65 -92 244 -143 398 -154 466 -188 521 -343 554 -60 13
-186 13 -249 0z"/>
<path d="M2345 2074 c-310 -42 -624 -151 -823 -287 -24 -16 -41 -31 -39 -33 3
-3 91 2 197 10 106 9 203 16 215 16 13 0 38 12 55 26 30 26 31 26 37 6 11 -42
62 -32 88 17 20 40 33 39 41 -4 l6 -35 149 0 c146 0 149 0 164 24 14 21 100
209 118 259 6 15 0 17 -51 16 -31 -1 -102 -7 -157 -15z"/>
<path d="M3566 1978 c7 -36 200 -422 219 -438 16 -13 304 -101 333 -102 13 0
25 2 28 5 6 6 102 350 106 381 3 22 -66 49 -254 96 -106 27 -406 90 -428 90
-5 0 -7 -15 -4 -32z"/>
<path d="M3050 1958 c-207 -69 -315 -125 -325 -167 -4 -14 -19 -46 -35 -71
-39 -63 -42 -80 -26 -134 14 -46 14 -47 -10 -58 -24 -11 -35 -58 -14 -58 6 0
20 -16 31 -35 16 -27 27 -35 50 -35 26 0 29 3 27 27 -3 24 1 28 36 35 22 5 54
17 72 29 31 19 33 19 38 1 4 -10 -3 -39 -14 -63 -11 -24 -20 -64 -20 -88 0
-42 1 -43 27 -38 l28 5 -23 -18 c-25 -21 -28 -36 -9 -55 9 -9 46 -13 124 -13
106 -1 111 0 123 23 11 20 10 26 -4 41 -16 15 -18 15 -31 -2 -10 -13 -14 -15
-15 -5 0 8 -6 11 -16 7 -8 -3 -12 -2 -9 4 3 5 26 12 50 16 45 6 45 6 45 48 0
23 -9 58 -20 78 -30 57 -19 70 38 47 26 -10 60 -21 75 -24 26 -5 28 -9 22 -36
-7 -29 -5 -31 16 -24 13 4 32 16 41 28 68 87 71 93 33 103 -30 7 -29 0 -9 74
l17 59 -42 44 c-57 60 -68 76 -101 156 -27 67 -68 133 -79 130 -3 -1 -44 -15
-91 -31z m22 -248 c11 0 33 10 50 21 29 21 30 21 24 2 -6 -18 -1 -19 66 -19
l73 1 -2 -57 c-2 -59 -24 -115 -48 -124 -8 -3 -39 6 -69 19 -58 27 -96 72 -96
114 0 12 -9 27 -20 33 -13 7 -20 21 -20 39 0 42 15 48 18 7 3 -29 7 -36 24
-36z m-110 -21 c-11 -10 -23 -32 -27 -48 -12 -54 -116 -122 -160 -105 -31 12
-66 134 -46 164 8 12 33 15 118 15 103 0 108 1 118 23 l10 23 3 -26 c2 -17 -4
-34 -16 -46z m93 -199 c25 -75 19 -95 -30 -97 -70 -2 -85 4 -85 37 0 16 7 48
16 70 14 35 20 40 49 40 31 0 35 -3 50 -50z"/>
<path d="M1799 1618 c-20 -74 -6 -334 25 -453 63 -249 179 -451 352 -616 44
-41 101 -90 127 -107 26 -18 47 -38 47 -45 0 -7 -11 -31 -25 -55 -28 -49 -26
-61 14 -85 53 -31 61 -25 131 99 35 63 70 120 77 126 9 7 31 3 77 -15 117 -47
223 -69 357 -75 195 -7 269 8 269 55 0 10 -5 13 -17 8 -36 -14 -250 -18 -334
-6 -90 14 -221 52 -282 82 -32 17 -36 22 -27 38 8 15 3 30 -23 69 -17 28 -34
51 -37 51 -3 1 -15 -17 -28 -39 -27 -48 -26 -48 -133 43 -98 84 -190 206 -250
332 -64 135 -89 234 -96 377 -5 95 -9 120 -23 133 -27 25 -33 4 -32 -107 4
-202 68 -403 189 -585 50 -76 157 -189 227 -238 56 -41 67 -63 41 -85 -12 -10
-26 -3 -77 37 -288 221 -448 549 -448 920 l0 128 -39 28 c-22 15 -42 27 -45
27 -3 0 -10 -19 -17 -42z"/>
<path d="M4231 1423 c-40 -44 -52 -66 -56 -102 -25 -181 -87 -346 -153 -407
-32 -30 -42 -47 -38 -60 7 -22 183 -124 213 -124 13 0 28 15 46 48 l26 48 -54
33 c-30 17 -55 35 -55 38 0 3 16 46 36 95 51 127 83 266 91 385 3 57 3 103 0
103 -3 0 -28 -25 -56 -57z"/>
<path d="M3872 1378 c-11 -29 -30 -84 -42 -123 -23 -77 -50 -120 -176 -291
-127 -172 -190 -272 -287 -455 -101 -192 -75 -175 -277 -185 -159 -8 -328 18
-451 70 -12 5 -18 -3 -27 -32 -22 -73 -19 -77 61 -100 238 -70 495 -69 732 3
207 63 457 225 576 376 l30 39 -32 39 -32 40 -69 -74 c-81 -87 -204 -183 -290
-226 -33 -17 -62 -29 -64 -27 -4 5 115 217 167 298 55 84 230 291 288 340 l52
44 -7 51 c-4 27 -7 80 -6 117 1 66 1 67 -43 107 -60 56 -78 54 -103 -11z"/>
<path d="M2737 1259 c-14 -110 -10 -137 20 -151 22 -11 35 -32 64 -110 20 -53
47 -116 60 -140 l24 -43 75 -2 c41 -1 84 0 95 2 25 5 74 85 121 196 19 46 47
96 61 111 24 26 25 30 18 104 -6 68 -9 76 -20 60 -7 -9 -17 -41 -20 -69 -15
-109 -71 -229 -118 -253 -15 -8 -25 -19 -21 -25 3 -5 -2 -21 -10 -34 -15 -22
-24 -25 -81 -25 -57 0 -66 3 -80 24 -8 13 -13 30 -10 39 4 10 -1 17 -14 22
-12 3 -33 22 -47 41 -32 42 -84 186 -84 235 0 19 -6 43 -13 54 -12 16 -15 12
-20 -36z"/>
<path d="M2861 1145 c-14 -41 3 -125 26 -125 8 0 11 -4 8 -10 -3 -5 3 -10 14
-10 12 0 21 -4 21 -9 0 -13 52 -29 81 -26 32 4 101 38 118 59 19 23 31 86 24
125 l-6 34 -18 -24 c-10 -13 -19 -40 -19 -60 0 -58 -34 -75 -136 -70 -44 2
-74 34 -74 79 0 20 -6 45 -14 54 -11 15 -14 13 -25 -17z"/>
</g>
</svg>
